<?xml version="1.0" encoding="utf-8"?>
<!-- Generator: Adobe Illustrator 23.0.3, SVG Export Plug-In . SVG Version: 6.00 Build 0)  -->
<svg version="1.1" id="Layer_1" xmlns="http://www.w3.org/2000/svg" xmlns:xlink="http://www.w3.org/1999/xlink" x="0px" y="0px"
	 viewBox="0 0 800 207.36" style="enable-background:new 0 0 800 207.36;" xml:space="preserve">
<style type="text/css">
	.st0{fill:#9EAFD8;}
	.st1{fill:#55BE8F;}
	.st2{fill:#0F132F;}
	.st3{fill:#FFFFFF;}
</style>
<g>
	<g>
		<g>
			<path class="st0" d="M98.8,103.68c28.47-16.75,60.07-33.51,94.82-50.26c-5.54-3.08-11.19-6.17-16.96-9.25
				c-13.78,6.16-27.1,12.33-39.96,18.49c-11.8-6.13-24.05-12.25-36.76-18.38c-13.3,6.13-26.13,12.25-38.49,18.38
				c-6.44-3.35-13-6.7-19.68-10.05c17.95-9.48,36.97-18.95,57.05-28.43c13.62,6.27,26.76,12.54,39.43,18.81
				c6.41-2.98,12.92-5.96,19.54-8.94c-18.52-10.11-38.17-20.22-58.96-30.34C63.99,20.37,32.28,37.04,3.71,53.7
				C38.54,70.36,70.24,87.02,98.8,103.68z"/>
		</g>
		<g>
			<path class="st1" d="M128.99,164.46c10.38-7.3,21.3-14.59,32.77-21.89c2.89-19.07,5.78-38.15,8.67-57.22
				c-6.55,2.76-13,5.52-19.34,8.28c-1.53,13.56-3.05,27.12-4.58,40.68c-11.3,6.97-22.07,13.94-32.33,20.9
				c-0.54,12.64-1.08,25.28-1.61,37.92c-4.39,3.29-8.67,6.58-12.83,9.87c-0.22-33.11-0.53-66.21-0.93-99.32
				c28.47-16.75,60.07-33.51,94.82-50.26c-6.01,33.93-12.1,67.86-18.25,101.79c-16.75,9.43-32.44,18.87-47.1,28.3
				C128.52,177.16,128.76,170.81,128.99,164.46z"/>
		</g>
		<path class="st2" d="M151.08,93.63c-1.55,13.56-3.09,27.12-4.64,40.68c5.21,2.75,10.31,5.51,15.31,8.26
			c2.89-19.07,5.78-38.15,8.67-57.22C163.87,88.11,157.42,90.87,151.08,93.63z"/>
		<g>
			<path class="st0" d="M50.94,134.31c-4.47,3.25-8.84,6.49-13.09,9.74c16.49,9.7,31.93,19.4,46.31,29.1
				c-0.24-6.47-0.49-12.95-0.73-19.42C73.09,147.26,62.26,140.78,50.94,134.31z"/>
		</g>
		<g>
			<path class="st1" d="M98.83,24.18c0,6.7,0,13.4-0.01,20.1C85.7,50.9,73.08,57.53,60.98,64.15C54.21,60.57,47.3,57,40.25,53.42
				C58.64,43.67,78.17,33.93,98.83,24.18z"/>
		</g>
		<path class="st2" d="M115.72,153.04c9.8-6.24,20.05-12.49,30.73-18.73c4.12,3.33,8.14,6.66,12.05,9.99
			c-10.29,6.72-20.13,13.44-29.51,20.16C124.7,160.65,120.27,156.85,115.72,153.04z"/>
		<g>
			<path class="st0" d="M30.13,103.68c1.95,12.96,3.9,25.93,5.85,38.89c4.79-3.37,9.71-6.74,14.76-10.11
				c-1.39-12.41-2.79-24.83-4.18-37.24C40.97,98.04,35.5,100.86,30.13,103.68z"/>
		</g>
		<g>
			<path class="st1" d="M98.83,24.18c0,6.7,0,13.4-0.01,20.1c12.74,6.13,25.03,12.25,36.87,18.38c0.48-6.43,0.96-12.86,1.44-19.29
				C124.83,36.97,112.07,30.58,98.83,24.18z"/>
		</g>
		<g>
			<path class="st2" d="M138.26,42.99c6.41-2.98,12.92-5.96,19.54-8.94c-0.76,6.74-1.52,13.48-2.28,20.22
				c-0.11,0-18.88,10.17-18.89,9.87C136.52,63.83,138.25,42.99,138.26,42.99z"/>
		</g>
		<path class="st2" d="M11.11,93.12c6.47,3.52,12.81,7.04,19.02,10.56c4.8-3.35,9.72-6.7,14.76-10.05
			c-6.31-3.38-12.76-6.75-19.33-10.13C20.63,86.71,15.82,89.91,11.11,93.12z"/>
		<path class="st2" d="M114.17,155.21c-0.26,6.69-0.51,13.38-0.77,20.07c4.4,2.74,8.71,5.49,12.92,8.23c0.69-7,1.39-14,2.1-21
			C123.76,160.08,119.01,157.65,114.17,155.21z"/>
		<g>
			<path class="st2" d="M3.91,54.77c34.7,16.3,66.33,32.61,94.89,48.91c-0.06,33.11-0.12,66.21-0.16,99.32
				c-22.3-16.42-47.68-32.84-76.15-49.27c-3.66-19.51-7.33-39.01-10.99-58.52c5.65,2.63,11.22,5.26,16.7,7.89
				c0.54,0.74,1.08,1.48,1.61,2.22c1.96,12.91,3.91,25.82,5.87,38.72c17.26,9.7,33.42,19.4,48.47,29.1
				c-0.24-6.47-0.49-12.95-0.73-19.42c-10.79-6.81-22.11-13.62-33.96-20.42c-1.53-13.23-3.05-26.45-4.58-39.68
				C32.92,87.17,20.48,80.71,7.57,74.25C6.35,67.76,5.13,61.26,3.91,54.77z"/>
		</g>
		<g>
			<path class="st2" d="M197.42,51.84c-0.21-0.48-0.57-0.88-1.05-1.15c-5.75-3.35-11.62-6.7-17.62-10.05
				c-0.49-0.27-1.08-0.42-1.7-0.42c-0.62,0-1.25,0.15-1.83,0.42c-5.11,2.44-10.14,4.88-15.11,7.33c0.59-4.89,1.17-9.77,1.76-14.66
				c0.14-1.12-0.43-2.17-1.48-2.73c-18.75-10.05-38.64-20.1-59.66-30.15C100.15,0.14,99.49,0,98.83,0c-0.67,0-1.33,0.15-1.91,0.42
				C61.88,17.18,29.99,33.93,1.26,50.68c-0.47,0.28-0.84,0.68-1.05,1.15C0,52.31-0.05,52.86,0.05,53.41
				c1.31,6.7,2.61,13.4,3.92,20.11c0.22,1.12,1.06,2.17,2.18,2.73c4.89,2.44,9.71,4.88,14.46,7.32c-3.95,2.44-7.84,4.88-11.66,7.32
				c-0.43,0.28-0.76,0.67-0.95,1.16c-0.19,0.48-0.23,1.02-0.12,1.58c3.92,20.11,7.84,40.21,11.76,60.32
				c0.22,1.13,0.95,2.17,1.91,2.73c28.49,16.75,53.83,33.51,76.01,50.26c0.37,0.28,0.78,0.42,1.2,0.42c0.42,0,0.84-0.15,1.2-0.42
				c4.44-3.35,9-6.7,13.7-10.05c0.79-0.56,1.31-1.61,1.36-2.73c0.22-4.88,0.44-9.76,0.66-14.64c3.36,2.44,6.66,4.88,9.89,7.32
				c0.37,0.27,0.79,0.42,1.24,0.42c0.39,0,0.78-0.11,1.15-0.32c14.87-10.09,30.89-20.17,48.05-30.26c0.96-0.56,1.69-1.61,1.91-2.73
				c6.55-33.51,13.11-67.02,19.66-100.54C197.69,52.86,197.63,52.31,197.42,51.84z M116.01,172.24c0.19-4.27,0.38-8.55,0.58-12.82
				c3.1,2.13,6.16,4.27,9.16,6.4c-0.29,4.27-0.59,8.55-0.88,12.82C121.96,176.51,119.01,174.37,116.01,172.24z M41.85,143.89
				c3.03-2.13,6.12-4.27,9.26-6.4c10.33,6.1,20.23,12.19,29.72,18.29c0.19,4.27,0.38,8.55,0.57,12.82
				C68.97,160.36,55.79,152.12,41.85,143.89z M38.23,138.43c-1.57-10.97-3.15-21.94-4.72-32.91c3.33-2.14,6.71-4.28,10.14-6.42
				c1.31,10.98,2.62,21.95,3.94,32.93C44.41,134.16,41.29,136.29,38.23,138.43z M29.57,100.04c-4-2.14-8.04-4.27-12.14-6.41
				c3.36-2.14,6.77-4.27,10.23-6.41c4.1,2.13,8.15,4.27,12.15,6.4C36.34,95.76,32.93,97.9,29.57,100.04z M24.85,152.13
				c-3.2-17.68-6.41-35.36-9.61-53.03c4.07,2.14,8.1,4.28,12.07,6.42c2.01,12.79,4.02,25.58,6.03,38.38
				c0.18,1.12,0.88,2.17,1.84,2.73c17.1,10.06,33.06,20.11,47.88,30.17c0.41,0.27,0.86,0.42,1.32,0.42c0.46,0,0.9-0.15,1.29-0.42
				c0.79-0.56,1.26-1.61,1.22-2.73c-0.2-6.7-0.41-13.41-0.61-20.11c-0.03-1.12-0.6-2.17-1.48-2.73c-10-6.4-20.47-12.8-31.39-19.2
				c-1.35-12.8-2.71-25.6-4.06-38.39c-0.02-0.11-0.03-0.23-0.05-0.34c-0.02-0.03-0.03-0.07-0.05-0.1c-0.06-0.24-0.15-0.48-0.28-0.73
				c-0.02-0.06-0.03-0.12-0.05-0.18c-0.12-0.17-0.25-0.34-0.37-0.51c-0.03-0.02-0.06-0.05-0.09-0.07c-0.2-0.22-0.41-0.41-0.63-0.56
				c-0.03-0.04-0.07-0.07-0.1-0.11C35.7,84.59,23.22,78.15,10.28,71.7c-0.77-4.27-1.55-8.55-2.32-12.82
				c31.97,15.54,61.22,31.09,87.76,46.63c0.2,31.08,0.4,62.16,0.6,93.24C75.21,183.21,51.39,167.67,24.85,152.13z M46.69,71.53
				C46.69,71.53,46.69,71.52,46.69,71.53c-11.68-6.04-23.77-12.07-36.27-18.11C37.17,37.87,66.64,22.33,98.82,6.8
				c18.3,8.84,35.73,17.68,52.27,26.51c-4.43,2.14-8.8,4.28-13.13,6.42c-11.98-6.4-24.43-12.8-37.33-19.2
				c-0.11-0.05-0.22-0.1-0.33-0.14c-0.04-0.01-0.08-0.01-0.12-0.02c-0.29-0.1-0.58-0.17-0.87-0.2c-0.06-0.02-0.12-0.04-0.18-0.06
				c-0.23,0-0.46,0.01-0.7,0.01c-0.03,0.01-0.06,0.02-0.09,0.03c-0.5,0.05-0.96,0.18-1.37,0.38c-20.27,10.05-39.4,20.1-57.39,30.15
				c-0.44,0.24-0.78,0.59-1.05,1.05c-0.04,0.1-0.09,0.2-0.13,0.3c-0.13,0.3-0.2,0.62-0.21,0.95c-0.01,0.05-0.03,0.1-0.04,0.14
				c0.03,0.2,0.05,0.41,0.08,0.61c0.01,0.02,0.03,0.04,0.04,0.07c0.11,0.44,0.29,0.83,0.55,1.19c0.37,0.5,0.89,0.91,1.44,1.17
				c6.7,3.35,13.27,6.7,19.71,10.04c0.53,0.28,1.13,0.42,1.72,0.42c0.59,0,1.16-0.15,1.65-0.42c11.36-6.4,23.19-12.8,35.47-19.2
				c12.3,6.4,24.13,12.81,35.51,19.21c0.09,0.05,0.19,0.09,0.28,0.14c0.03,0,0.06,0.01,0.09,0.01c0.28,0.11,0.57,0.19,0.85,0.22
				c0.03,0.01,0.06,0.02,0.08,0.04c0.11,0,0.22,0,0.33,0c0.59,0,1.18-0.15,1.72-0.42c12.33-6.4,25.11-12.8,38.36-19.2
				c3.78,2.14,7.51,4.27,11.19,6.41c-32.19,15.54-61.66,31.09-88.42,46.63C82.44,90.54,65.07,81.03,46.69,71.53z M140.01,58.02
				c0.35-4.28,0.71-8.55,1.06-12.83c4.29-2.14,8.64-4.28,13.04-6.42c-0.46,4.27-0.91,8.55-1.37,12.82
				C148.44,53.74,144.2,55.88,140.01,58.02z M134.05,45.19c-0.29,4.27-0.59,8.55-0.88,12.82c-9.93-5.49-20.21-10.98-30.82-16.46
				c0.03-4.27,0.06-8.55,0.09-12.82C113.31,34.21,123.85,39.7,134.05,45.19z M95.19,28.73c0.03,4.27,0.06,8.55,0.08,12.82
				c-11.78,6.1-23.15,12.19-34.1,18.29c-4.16-2.14-8.38-4.28-12.64-6.42C63.33,45.19,78.88,36.96,95.19,28.73z M112.63,151.33
				c-0.19,0.14-0.33,0.29-0.46,0.43c-0.09,0.1-0.23,0.25-0.2,0.25c0,0,0,0,0,0c-0.06,0.06-0.12,0.13-0.18,0.19
				c-0.08,0.17-0.16,0.33-0.24,0.5c-0.01,0.04-0.01,0.07-0.02,0.11c-0.09,0.22-0.15,0.46-0.18,0.69c-0.02,0.06-0.04,0.12-0.06,0.18
				c-0.4,12.89-0.8,25.77-1.2,38.66c-3.01,2.14-5.96,4.27-8.86,6.41c0.22-31.08,0.45-62.16,0.67-93.24
				c18.27-10.7,37.82-21.39,58.66-32.09c4.59-2.36,9.24-4.73,13.95-7.1c0.14-0.04,0.28-0.09,0.42-0.13
				c0.04-0.04,0.08-0.08,0.13-0.12c4.81-2.4,9.67-4.8,14.61-7.2c-5.66,31.08-11.31,62.17-16.97,93.25
				c-15.09,8.84-29.31,17.67-42.65,26.51c0.35-4.27,0.71-8.55,1.06-12.82c9.96-6.39,20.38-12.79,31.26-19.18
				c0.47-0.28,0.89-0.68,1.16-1.08c0.04-0.06,0.08-0.11,0.13-0.17c0.01-0.02,0.02-0.05,0.03-0.07c0.18-0.31,0.33-0.65,0.43-1.03
				c0.02-0.04,0.04-0.08,0.06-0.12c3.19-20.2,6.38-40.39,9.57-60.59c0.18-1.13-0.28-2.17-1.2-2.73c-0.45-0.28-1-0.42-1.57-0.42
				c-0.58,0-1.16,0.15-1.71,0.43c-6.5,3.35-12.87,6.69-19.12,10.04c-0.12,0.07-0.23,0.14-0.35,0.21c-0.04,0.04-0.07,0.08-0.11,0.12
				c-0.22,0.17-0.43,0.36-0.63,0.6c-0.08,0.1-0.16,0.2-0.24,0.29c-0.02,0.04-0.05,0.08-0.07,0.11c-0.18,0.3-0.32,0.62-0.4,0.97
				c-0.02,0.05-0.05,0.1-0.07,0.15c-1.37,12.89-2.75,25.78-4.12,38.67C133.19,138.46,122.68,144.89,112.63,151.33z M166.47,89.05
				c-2.37,16.46-4.75,32.92-7.12,49.38c-3.06-2.14-6.17-4.27-9.34-6.41c1.47-12.19,2.93-24.38,4.4-36.57
				C158.38,93.32,162.4,91.18,166.47,89.05z M146.47,137.49c3.14,2.14,6.22,4.27,9.25,6.41c-9.3,5.49-18.26,10.98-26.88,16.46
				c-3.03-2.14-6.12-4.27-9.25-6.41C128.21,148.46,137.17,142.97,146.47,137.49z"/>
		</g>
	</g>
	<g>
		<path class="st3" d="M305.34,113.08c0,3.94-0.97,6.94-2.89,8.9c-1.93,1.98-4.8,2.94-8.78,2.94c-7.95,0-11.49-3.7-11.49-12.01
			V70.73h-12.31v42.69c0,7.38,2.14,13.16,6.36,17.19c4.19,3.99,10.06,6.02,17.45,6.02c7.45,0,13.35-2.03,17.54-6.02
			c4.22-4.03,6.36-9.81,6.36-17.19V70.73h-12.23V113.08z"/>
		<polygon class="st3" points="384.29,110.34 364.49,70.73 352.99,70.73 352.99,135.36 364.87,135.36 364.87,95.69 384.84,135.36
			396.17,135.36 396.17,70.73 384.29,70.73 		"/>
		<polygon class="st3" points="434.99,82.19 449.2,82.19 449.2,123.9 434.99,123.9 434.99,135.36 475.8,135.36 475.8,123.9
			461.51,123.9 461.51,82.19 475.8,82.19 475.8,70.73 434.99,70.73 		"/>
		<polygon class="st3" points="563.94,70.73 548.46,70.73 527.86,95.54 527.86,70.73 515.55,70.73 515.55,135.36 527.86,135.36
			527.86,113.17 531.71,108.67 550.91,135.36 565.85,135.36 539.93,99.42 		"/>
		<path class="st3" d="M628.61,113.08c0,3.94-0.97,6.94-2.9,8.9c-1.92,1.98-4.79,2.93-8.77,2.93c-7.95,0-11.49-3.7-11.49-12.01
			V70.73h-12.31v42.69c0,7.38,2.14,13.16,6.36,17.19c4.19,3.99,10.06,6.02,17.45,6.02c7.45,0,13.35-2.03,17.54-6.02
			c4.22-4.03,6.36-9.81,6.36-17.19V70.73h-12.23V113.08z"/>
		<path class="st3" d="M714.01,100.5c3.41-2.8,5.18-6.81,5.18-11.83c0-5.22-1.92-9.58-5.69-12.95c-3.7-3.31-8.56-4.99-14.45-4.99
			h-23.13v64.63h21.68c7.61,0,13.51-1.73,17.56-5.15c4.15-3.53,6.25-8.58,6.25-15c0-4.11-1.11-7.71-3.3-10.69
			C716.91,102.9,715.55,101.56,714.01,100.5z M697.76,95.92h-9.45V82.27h9.37c3.13,0,5.52,0.63,7.1,1.88
			c1.44,1.14,2.11,2.71,2.11,4.95C706.88,92.47,705.8,95.92,697.76,95.92z M688.31,123.82v-16.53h8.52c5.74,0,8.52,1.08,9.83,1.98
			c1.63,1.12,2.43,3.07,2.43,5.94c0,3.02-0.87,5.12-2.64,6.41c-2.02,1.46-5.31,2.2-9.78,2.2H688.31z"/>
		<polygon class="st3" points="800,82.27 800,70.73 759.71,70.73 759.71,135.36 800,135.36 800,123.82 772.1,123.82 772.1,107.88
			797.62,107.88 797.62,96.51 772.1,96.51 772.1,82.27 		"/>
	</g>
</g>
</svg>
